# xmcd
#
# Track frame offsets: 
#        150
#        12678
#        25504
#        38092
#        54723
#        67327
#        84300
#        95408
#        105081
#        123700
#        135413
#        142458
#        144516
#        158897
#        176483
#        197192
#        211920
#
# Disc length: 3069 seconds
#
# Revision: 0
# Processed by: cddbd v1.5PL3 Copyright (c) Steve Scherf et al.
# Submitted via: ExactAudioCopy v0.95a5
#
DISCID=f50bfb11
DTITLE=Johnny Cash - March 31 1986 d1 Wembley
DYEAR=1900
DGENRE=
TTITLE0=Intro Medley (Johnny Cash Band)
TTITLE1=Ring Of Fire
TTITLE2=Folsom Prison Blues
TTITLE3=Sunday Morning Coming Down
TTITLE4=Any Old Wind That Blows
TTITLE5=These Hands
TTITLE6=Here Comes That Rainbow Again
TTITLE7=Love Is The Way
TTITLE8=The Highwayman (with John Schneider)
TTITLE9=Big River
TTITLE10=I Guess Things Happen That Way
TTITLE11=Band Introductions
TTITLE12=Fairweather Friends
TTITLE13=Piano Solo (Earl 'Pool' Ball)
TTITLE14=One Piece At A Time
TTITLE15=Forty Shades Of Green
TTITLE16=Ghost Riders In The Sky
EXTD=
EXTT0=
EXTT1=
EXTT2=
EXTT3=
EXTT4=
EXTT5=
EXTT6=
EXTT7=
EXTT8=
EXTT9=
EXTT10=
EXTT11=
EXTT12=
EXTT13=
EXTT14=
EXTT15=
EXTT16=
PLAYORDER=
